<svg xmlns="http://www.w3.org/2000/svg" xmlns:xlink="http://www.w3.org/1999/xlink" version="1.1" id="Final_OL" x="0px" y="0px" viewBox="0 0 479 80" style="enable-background:new 0 0 479 80;" xml:space="preserve"><style type="text/css">
	.st0{fill:#FFFFFF;}
</style><g><g><g><path class="st0" d="M1.4,10.3c0-3.5,2.8-6.3,6.3-6.3c3.5,0,6.4,2.7,6.4,6.3c0,3.4-2.8,6.2-6.4,6.2C4.2,16.6,1.4,13.8,1.4,10.3z      M2.2,24.4h10.9v53.3H2.2V24.4z"/><path class="st0" d="M53.2,4.6c14.2,0,24,9.8,24,24c0,14.3-10.1,24.1-24.4,24.1H37.1v25H25.8V4.6H53.2z M37.1,43.1h13     c9.9,0,15.5-5.3,15.5-14.5c0-9.2-5.6-14.5-15.4-14.5H37.1C37.1,14.1,37.1,43.1,37.1,43.1z"/><path class="st0" d="M85,4.6h10.8v28.9h0.3c3.2-6.4,8.7-9.7,16.9-9.7c11.7,0,18.7,7.8,18.7,19.8v34h-11V45.8     c0-7.8-3.9-12.6-11.6-12.6c-8.1,0-13.1,5.6-13.1,14v30.4H85L85,4.6L85,4.6z"/><path class="st0" d="M139.5,51c0-16.8,9.9-27.3,25.3-27.3c15.4,0,25.3,10.5,25.3,27.3c0,16.8-9.8,27.3-25.3,27.3     C149.2,78.3,139.5,67.8,139.5,51z M178.9,51c0-11.5-5.3-18.3-14.1-18.3c-8.9,0-14.1,6.8-14.1,18.3c0,11.5,5.3,18.3,14.1,18.3     C173.6,69.3,178.9,62.5,178.9,51z"/><path class="st0" d="M197.8,24.4h10.4v9.1h0.3c3.2-6.4,8.6-9.7,16.8-9.7c11.7,0,18.5,7.5,18.5,19.7v34.1h-11v-32     c0-8-3.7-12.5-11.4-12.5c-7.8,0-12.6,5.6-12.6,13.8v30.7h-10.9L197.8,24.4L197.8,24.4z"/><path class="st0" d="M299.7,62c-1.5,9.7-10.9,16.3-22.9,16.3c-15.5,0-25.1-10.4-25.1-27c0-16.7,9.7-27.5,24.7-27.5     c14.7,0,24,10.1,24,26.3v3.7h-37.6v0.7c0,9.1,5.7,15.1,14.3,15.1c6.1,0,10.8-2.9,12.3-7.5L299.7,62L299.7,62z M262.7,46.1h26.6     c-0.3-8.2-5.5-13.5-13.1-13.5C268.7,32.6,263.3,38,262.7,46.1z"/><path class="st0" d="M343.9,41v-0.4l-24-36.1h13.5l18,28.3h0.4L370,4.6h12.8l-24.8,36.5v0.3l24.3,36.2h-13.3l-18.2-27.8h-0.4     l-18.4,27.8h-12.6L343.9,41z"/></g></g><g><path class="st0" d="M452.1,10.1l2.5,0c0.7,0,1.3,0,2,0c1.2,0,2.6,0.1,4,0.3c1.3,0.2,2.3,0.6,3.4,1.1c1,0.5,2,1.2,2.8,2    c0.8,0.8,1.5,1.8,2.1,2.8c0.5,1,0.9,2.1,1.1,3.3c0.3,1.4,0.3,2.9,0.3,4c0,0.7,0,1.3,0,2l0,28.3l0,2.5c0,0.7,0,1.3,0,2    c0,1.1-0.1,2.6-0.3,4c-0.2,1.3-0.6,2.3-1.1,3.4c-0.5,1-1.2,2-2,2.8c-0.8,0.8-1.8,1.5-2.8,2c-1,0.5-2.1,0.9-3.4,1.1    c-1.4,0.2-2.8,0.3-4,0.3c-0.7,0-1.3,0-2,0l-2.5,0l-28.2,0c-0.7,0-1.3,0-2,0c-1.2,0-2.6-0.1-4-0.3c-1.3-0.2-2.4-0.6-3.4-1.1    c-1-0.5-2-1.2-2.8-2c-0.8-0.8-1.5-1.8-2-2.8c-0.5-1-0.9-2.1-1.1-3.4c-0.3-1.4-0.3-2.9-0.3-4c0-0.7,0-1.3,0-1.9l0-28.3l0-2.4    c0-0.7,0-1.4,0-2c0-1.1,0.1-2.6,0.3-4c0.2-1.3,0.6-2.4,1.1-3.4c0.5-1.1,1.2-2,2.1-2.8c0.8-0.8,1.8-1.5,2.8-2    c1-0.5,2.1-0.9,3.4-1.1c1.4-0.2,2.8-0.3,4-0.3c0.7,0,1.3,0,2,0L452.1,10.1 M452.1,3.4l-28.3,0c-0.7,0-1.4,0-2.2,0    c-1.5,0-3.2,0.1-5,0.4c-1.9,0.3-3.6,0.9-5.2,1.7c-1.7,0.9-3.2,2-4.5,3.3c-1.3,1.3-2.4,2.8-3.3,4.5c-0.8,1.6-1.4,3.3-1.7,5.2    c-0.3,1.8-0.4,3.7-0.4,5c0,0.7,0,1.4,0,2.2l0,2.5l0,28.3c0,0.7,0,1.4,0,2.1c0,1.4,0.1,3.2,0.4,5c0.3,1.9,0.9,3.6,1.7,5.2    c0.9,1.7,2,3.2,3.3,4.5c1.3,1.3,2.8,2.4,4.5,3.3c1.6,0.8,3.3,1.4,5.2,1.7c1.8,0.3,3.6,0.4,5,0.4c0.7,0,1.4,0,2.1,0l28.3,0l2.5,0    c0.7,0,1.4,0,2.1,0c1.5,0,3.2-0.1,5-0.4c1.9-0.3,3.6-0.9,5.2-1.7c1.7-0.9,3.2-2,4.5-3.3c1.3-1.3,2.4-2.9,3.3-4.5    c0.8-1.6,1.4-3.3,1.7-5.2c0.3-1.8,0.4-3.7,0.4-5c0-0.7,0-1.4,0-2.1l0-2.5l0-28.3c0-0.7,0-1.4,0-2.2c0-1.4-0.1-3.2-0.4-5    c-0.3-1.9-0.9-3.6-1.7-5.2c-0.8-1.7-1.9-3.2-3.3-4.5c-1.3-1.3-2.9-2.4-4.5-3.3c-1.6-0.8-3.3-1.4-5.2-1.7c-1.8-0.3-3.6-0.4-5-0.5    c-0.7,0-1.4,0-2.2,0L452.1,3.4L452.1,3.4z"/><g><path class="st0" d="M433.2,59.5h-6.6V22.8h14.6c7.9,0,12.7,4.4,12.7,11.4c0,4.9-2.5,8.9-6.9,10.5l8,14.8h-7.5l-7.2-13.8h-7.1     L433.2,59.5L433.2,59.5z M433.2,40.6h7.4c4.2,0,6.6-2.3,6.6-6.3c0-3.9-2.6-6.3-6.7-6.3h-7.3L433.2,40.6L433.2,40.6z"/></g></g></g></svg>